<svg width="24" height="24" viewBox="0 0 24 24" fill="none" xmlns="http://www.w3.org/2000/svg">
<path fill-rule="evenodd" clip-rule="evenodd" d="M16.5562 1.25001L16.6498 1.25002L17.1987 1.25002L17.2308 1.25002C18.0436 1.25001 18.6992 1.25001 19.2301 1.29338C19.7768 1.33805 20.2569 1.43241 20.7011 1.65875C21.4067 2.01827 21.9804 2.59195 22.3399 3.29756C22.5663 3.74177 22.6606 4.22192 22.7053 4.76855C22.7487 5.29946 22.7487 5.95507 22.7487 6.7679V6.80002V7.3492L22.7487 7.44273C22.7488 8.33153 22.7489 8.90433 22.6174 9.45207C22.5011 9.93672 22.3092 10.4 22.0488 10.825C21.7545 11.3053 21.3494 11.7103 20.7208 12.3387L20.7208 12.3387L20.6547 12.4048L19.3136 13.746L19.7314 15.8334L19.7531 15.942C19.9168 16.7581 20.03 17.3224 19.9757 17.8786C19.9278 18.3693 19.7835 18.8458 19.5513 19.2807C19.288 19.7736 18.8809 20.1805 18.2921 20.7688L18.2138 20.8471L16.5306 22.5303C16.3747 22.6862 16.1581 22.7656 15.9384 22.7474C15.7187 22.7292 15.5181 22.6153 15.3899 22.4359L13.2931 19.5003C13.232 19.5355 13.1706 19.5684 13.1086 19.5991C11.7797 20.2577 10.2193 20.2577 8.89037 19.5992C8.19024 19.2522 7.5635 18.6252 6.58074 17.6419L6.46903 17.5302L6.3573 17.4185C5.37413 16.4358 4.74712 15.8091 4.40019 15.109C3.74165 13.7801 3.74162 12.2199 4.4001 10.891C4.4308 10.829 4.46369 10.7677 4.49882 10.7066L1.56406 8.61021C1.38467 8.48207 1.27074 8.28148 1.25256 8.06177C1.23438 7.84206 1.31379 7.62547 1.46968 7.46958L3.15318 5.78613L3.23144 5.70784C3.81972 5.11915 4.2265 4.71208 4.71933 4.44887C5.15418 4.21662 5.63055 4.07239 6.1212 4.02444C6.67726 3.97009 7.24153 4.08316 8.05754 4.24668L8.16608 4.26842L10.2525 4.68574L11.5938 3.3444L11.6599 3.27825C12.2883 2.64957 12.6933 2.24442 13.1736 1.95005C13.5986 1.68959 14.062 1.49765 14.5467 1.38128C15.0945 1.24976 15.6673 1.24986 16.5562 1.25001ZM6.46885 8.46971L8.97787 5.9605L7.87189 5.73929C6.90513 5.54592 6.57348 5.48738 6.26711 5.51732C5.97272 5.54609 5.6869 5.63263 5.42599 5.77198C5.15447 5.917 4.91098 6.14967 4.21383 6.84681L3.15637 7.90424L5.41891 9.52041L5.97711 8.96216C6.09737 8.84106 6.22398 8.71451 6.35712 8.58142L6.46885 8.46971ZM5.74415 11.557C5.94439 11.1529 6.31076 10.7543 7.20364 9.85692L11.0299 6.03029C11.0356 6.02456 11.0412 6.01876 11.0467 6.01287L12.6545 4.40502C13.3715 3.68791 13.647 3.4192 13.9574 3.22899C14.2482 3.05078 14.5652 2.91945 14.8969 2.83983C15.2508 2.75484 15.6357 2.75002 16.6498 2.75002L17.1987 2.75002C18.0511 2.75002 18.6453 2.7506 19.108 2.7884C19.5619 2.82549 19.8226 2.89462 20.0201 2.99526C20.4435 3.21097 20.7877 3.55518 21.0034 3.97854C21.1041 4.17606 21.1732 4.43682 21.2103 4.8907C21.2481 5.35333 21.2487 5.94757 21.2487 6.80002V7.3492C21.2487 8.36321 21.2438 8.74798 21.1589 9.10192C21.0793 9.43352 20.948 9.75053 20.7698 10.0413C20.5796 10.3517 20.311 10.6272 19.594 11.3442L14.4692 16.4694C13.3359 17.6028 12.8927 18.032 12.4425 18.2551C11.5333 18.7057 10.4657 18.7057 9.55638 18.2551C9.18441 18.0708 8.81716 17.7457 8.06126 16.9988L9.52969 15.5304C9.82259 15.2375 9.82259 14.7626 9.52969 14.4697C9.2368 14.1768 8.76193 14.1768 8.46903 14.4697L7.00059 15.9381C6.25364 15.1822 5.92854 14.815 5.74421 14.443C5.29363 13.5337 5.29361 12.4662 5.74415 11.557ZM16.096 20.8436L14.4798 18.581L18.0391 15.0212L18.2606 16.1278C18.4541 17.0947 18.5127 17.4264 18.4828 17.7328C18.454 18.0273 18.3675 18.3131 18.2281 18.5741C18.0831 18.8457 17.8504 19.0892 17.1531 19.7865L16.096 20.8436ZM13.752 8.99953C13.752 8.30918 14.3116 7.74953 15.002 7.74953C15.6923 7.74953 16.252 8.30918 16.252 8.99953C16.252 9.68989 15.6923 10.2495 15.002 10.2495C14.3116 10.2495 13.752 9.68989 13.752 8.99953ZM15.002 6.24953C13.4832 6.24953 12.252 7.48075 12.252 8.99953C12.252 10.5183 13.4832 11.7495 15.002 11.7495C16.5207 11.7495 17.752 10.5183 17.752 8.99953C17.752 7.48075 16.5207 6.24953 15.002 6.24953Z" fill="#E75934"/>
</svg>
