<svg width="168" height="120" viewBox="0 0 168 120" fill="none" xmlns="http://www.w3.org/2000/svg">
<path d="M83.0075 71.222C82.8427 71.177 80.3161 70.522 77.6296 70.522C72.5464 70.522 69.4804 73.272 69.4804 77.367C69.4804 80.992 72.042 82.802 75.118 83.772C75.4575 83.887 75.9618 84.042 76.2964 84.152C77.6646 84.582 78.7581 85.222 78.7581 86.332C78.7581 87.572 77.4948 88.377 74.7534 88.377C72.3416 88.377 70.0297 87.687 69.5403 87.562V92.602C69.81 92.662 72.5613 93.202 75.4975 93.202C79.7219 93.202 84.5505 91.357 84.5505 85.857C84.5505 83.187 82.9176 80.732 79.3374 79.592L77.8144 79.107C76.9056 78.822 75.2827 78.357 75.2827 77.022C75.2827 75.967 76.4862 75.227 78.6982 75.227C80.6057 75.227 82.9276 75.867 83.0125 75.897V71.222H83.0075ZM129.636 81.867C129.636 85.052 127.199 87.632 123.928 87.632C120.653 87.632 118.226 85.057 118.226 81.867C118.226 78.687 120.658 76.112 123.928 76.112C127.199 76.107 129.636 78.687 129.636 81.867ZM123.928 70.532C117.202 70.532 112.379 75.612 112.379 81.862C112.379 88.127 117.202 93.202 123.928 93.202C130.655 93.202 135.483 88.127 135.483 81.862C135.483 75.612 130.655 70.532 123.928 70.532ZM62.0802 92.817H56.5625V70.922H62.0802" fill="#049FD9"/>
<path d="M48.9748 71.3167C48.4555 71.1617 46.538 70.5317 43.9415 70.5317C37.2254 70.5317 32.2969 75.3267 32.2969 81.8618C32.2969 88.9168 37.7397 93.2018 43.9415 93.2018C46.4032 93.2018 48.2857 92.6168 48.9748 92.4218V86.5468C48.7401 86.6768 46.9325 87.7068 44.3409 87.7068C40.6658 87.7068 38.2939 85.1168 38.2939 81.8618C38.2939 78.5068 40.7657 76.0218 44.3409 76.0218C46.9775 76.0218 48.7551 77.0768 48.9748 77.1918" fill="#049FD9"/>
<path d="M106.572 71.3167C106.053 71.1617 104.136 70.5317 101.539 70.5317C94.823 70.5317 89.8945 75.3267 89.8945 81.8618C89.8945 88.9168 95.3373 93.2018 101.539 93.2018C104.001 93.2018 105.883 92.6168 106.572 92.4218V86.5468C106.338 86.6768 104.53 87.7068 101.939 87.7068C98.2635 87.7068 95.8916 85.1168 95.8916 81.8618C95.8916 78.5068 98.3633 76.0218 101.939 76.0218C104.575 76.0218 106.353 77.0768 106.572 77.1918" fill="#049FD9"/>
<path d="M56.5467 29.5268C56.5467 28.0168 55.3133 26.7917 53.8053 26.7917C52.2973 26.7917 51.0639 28.0168 51.0639 29.5268V58.6018C51.0639 60.1218 52.2973 61.3418 53.8053 61.3418C55.3133 61.3418 56.5467 60.1168 56.5467 58.6018V29.5268ZM41.4966 39.8468C41.4966 38.3368 40.2682 37.1118 38.7552 37.1118C37.2422 37.1118 36.0139 38.3368 36.0139 39.8468V53.1368C36.0139 54.6518 37.2422 55.8768 38.7552 55.8768C40.2682 55.8768 41.4966 54.6518 41.4966 53.1368V39.8468ZM26.4515 47.3918C26.4515 45.8818 25.2231 44.6618 23.7101 44.6618C22.2021 44.6618 20.9688 45.8868 20.9688 47.3918V53.1418C20.9688 54.6568 22.2021 55.8818 23.7101 55.8818C25.2181 55.8818 26.4515 54.6568 26.4515 53.1418" fill="#049FD9"/>
<path d="M51.0703 29.5268C51.0703 28.0168 52.3037 26.7917 53.8117 26.7917C55.3197 26.7917 56.5531 28.0168 56.5531 29.5268V58.6018C56.5531 60.1218 55.3197 61.3418 53.8117 61.3418C52.3037 61.3418 51.0703 60.1168 51.0703 58.6018V29.5268ZM66.1154 39.8468C66.1154 38.3368 67.3438 37.1118 68.8568 37.1118C70.3648 37.1118 71.5982 38.3368 71.5982 39.8468V53.1368C71.5982 54.6518 70.3698 55.8768 68.8568 55.8768C67.3488 55.8768 66.1154 54.6518 66.1154 53.1368V39.8468ZM81.1605 47.3918C81.1605 45.8818 82.3889 44.6618 83.9019 44.6618C85.4099 44.6618 86.6433 45.8868 86.6433 47.3918V53.1418C86.6433 54.6568 85.4099 55.8818 83.9019 55.8818C82.3939 55.8818 81.1605 54.6568 81.1605 53.1418" fill="#049FD9"/>
<path d="M111.235 29.5268C111.235 28.0168 112.468 26.7917 113.976 26.7917C115.484 26.7917 116.717 28.0168 116.717 29.5268V58.6018C116.717 60.1218 115.484 61.3418 113.976 61.3418C112.468 61.3418 111.235 60.1168 111.235 58.6018V29.5268ZM126.285 39.8468C126.285 38.3368 127.513 37.1118 129.026 37.1118C130.539 37.1118 131.767 38.3368 131.767 39.8468V53.1368C131.767 54.6518 130.539 55.8768 129.026 55.8768C127.513 55.8768 126.285 54.6518 126.285 53.1368V39.8468ZM141.33 47.3918C141.33 45.8818 142.558 44.6618 144.071 44.6618C145.579 44.6618 146.812 45.8868 146.812 47.3918V53.1418C146.812 54.6568 145.579 55.8818 144.071 55.8818C142.563 55.8818 141.33 54.6568 141.33 53.1418" fill="#049FD9"/>
<path d="M116.711 29.5268C116.711 28.0168 115.478 26.7917 113.97 26.7917C112.462 26.7917 111.228 28.0168 111.228 29.5268V58.6018C111.228 60.1218 112.462 61.3418 113.97 61.3418C115.478 61.3418 116.711 60.1168 116.711 58.6018V29.5268ZM101.666 39.8468C101.666 38.3368 100.437 37.1118 98.9245 37.1118C97.4165 37.1118 96.1831 38.3368 96.1831 39.8468V53.1368C96.1831 54.6518 97.4115 55.8768 98.9245 55.8768C100.432 55.8768 101.666 54.6518 101.666 53.1368V39.8468ZM86.6207 47.3918C86.6207 45.8818 85.3924 44.6618 83.8794 44.6618C82.3714 44.6618 81.138 45.8868 81.138 47.3918V53.1418C81.138 54.6568 82.3714 55.8818 83.8794 55.8818C85.3874 55.8818 86.6207 54.6568 86.6207 53.1418" fill="#049FD9"/>
</svg>
