<svg width="108" height="22" viewBox="0 0 108 22" fill="none" xmlns="http://www.w3.org/2000/svg">
<path d="M21.1448 21.5077C21.112 20.8848 20.7514 15.4423 12.9156 13.803C2.68647 11.6392 -0.00195312 4.0657 -0.00195312 0.360911H5.89947V0.328125C5.93226 0.951053 6.2929 6.39348 14.1287 8.03276C24.325 10.1638 27.0463 17.7701 27.0463 21.4749H21.1448V21.5077Z" fill="#E75934"/>
<path d="M5.89947 21.5079H-0.00195312V15.6064C3.24383 15.6064 5.89947 18.2621 5.89947 21.5079Z" fill="#E75934"/>
<path d="M21.1426 0.29541H27.044V6.19684C23.7654 6.19684 21.1426 3.57398 21.1426 0.29541Z" fill="#E75934"/>
<path d="M42.6534 21.5073H37.2109V0.294922H42.6534V21.5073Z" fill="#333333"/>
<path d="M71.405 15.3436C71.405 18.9172 69.3068 21.5401 64.4873 21.5401H45.0781V0.294922H63.766C68.5855 0.294922 70.0608 2.75385 70.0608 5.86849C70.0608 7.34385 69.4707 8.81921 68.3888 9.99949C70.2248 11.1142 71.405 12.8846 71.405 15.3436ZM50.5533 8.62249H61.7988H61.8316C63.2742 8.62249 64.6184 8.62249 64.6184 6.42585C64.6184 4.22921 63.2742 4.22921 61.7988 4.22921H50.5533V8.62249ZM65.9298 15.0485C65.9298 12.8191 64.5856 12.8191 63.143 12.8191H50.5206V17.3107H63.143C64.6184 17.3107 65.9298 17.3107 65.9298 15.0485Z" fill="#333333"/>
<path d="M78.6534 21.5073H73.2109V0.294922H78.6534V21.5073Z" fill="#333333"/>
<path d="M85.8647 14.229C85.8647 16.4584 87.6679 17.5076 94.5857 17.5076C100.323 17.5076 102.028 16.8846 102.028 15.2126C102.028 13.4421 100.815 13.1471 93.93 12.8192C84.6844 12.393 81.0124 10.9504 81.0124 6.1965C81.0452 1.47536 85.8319 0 93.7661 0C101.766 0 106.618 1.99993 106.618 7.24564H101.176C101.176 4.91786 98.8479 4.32771 93.1759 4.32771C87.7991 4.32771 86.5532 4.85228 86.5532 6.426C86.5532 8.06528 87.8319 8.36035 93.9956 8.721C102.323 9.18 107.536 9.639 107.536 15.0159C107.536 20.6878 102.159 21.8353 94.3234 21.8353C85.6352 21.8353 80.4551 20.3599 80.4551 14.229H85.8647Z" fill="#333333"/>
</svg>
