<svg width="24" height="24" viewBox="0 0 24 24" fill="none" xmlns="http://www.w3.org/2000/svg">
<path d="M5.58661 7.72102H0.768566C0.554734 7.72102 0.38147 7.89437 0.38147 8.10812V23.5864C0.38147 23.8002 0.554734 23.9735 0.768566 23.9735H5.58661C5.80044 23.9735 5.9737 23.8002 5.9737 23.5864V8.10812C5.9737 7.89437 5.80044 7.72102 5.58661 7.72102Z" fill="#333333"/>
<path d="M3.1793 0.0263977C1.42622 0.0263977 0 1.45107 0 3.20222C0 4.95414 1.42622 6.37935 3.1793 6.37935C4.93099 6.37935 6.35605 4.95406 6.35605 3.20222C6.35613 1.45107 4.93099 0.0263977 3.1793 0.0263977Z" fill="#333333"/>
<path d="M17.8416 7.33633C15.9065 7.33633 14.476 8.1682 13.6084 9.11342V8.10813C13.6084 7.89437 13.4351 7.72103 13.2213 7.72103H8.60719C8.39336 7.72103 8.22009 7.89437 8.22009 8.10813V23.5864C8.22009 23.8003 8.39336 23.9735 8.60719 23.9735H13.4147C13.6285 23.9735 13.8018 23.8003 13.8018 23.5864V15.9283C13.8018 13.3476 14.5028 12.3423 16.3017 12.3423C18.2608 12.3423 18.4165 13.954 18.4165 16.061V23.5865C18.4165 23.8003 18.5898 23.9736 18.8036 23.9736H23.6129C23.8268 23.9736 24 23.8003 24 23.5865V15.0964C24 11.2591 23.2683 7.33633 17.8416 7.33633Z" fill="#333333"/>
</svg>
