<svg width="193" height="36" viewBox="0 0 193 36" fill="none" xmlns="http://www.w3.org/2000/svg">
<g clip-path="url(#clip0_252_567)">
<path d="M37.1693 9.00106H29.1428C28.9715 9.00106 28.8072 9.06682 28.686 9.18386C28.5648 9.30091 28.4968 9.45966 28.4968 9.62519V17.3695C28.4974 17.4518 28.481 17.5334 28.4488 17.6096C28.4166 17.6858 28.3691 17.7552 28.3091 17.8135C28.249 17.872 28.1776 17.9183 28.0988 17.95C28.0201 17.9816 27.9358 17.9978 27.8506 17.9978H19.8286C19.7434 17.9978 19.6589 17.9816 19.5803 17.95C19.5016 17.9183 19.4302 17.872 19.37 17.8135C19.31 17.7552 19.2625 17.6858 19.2304 17.6096C19.1981 17.5334 19.1818 17.4518 19.1824 17.3695V9.51905C19.1825 9.35508 19.1492 9.19268 19.0843 9.04116C19.0195 8.88964 18.9244 8.75192 18.8044 8.63592L10.2417 0.365137C10.0013 0.133171 9.67597 0.0019918 9.33618 0H1.19108C1.01971 0 0.855356 0.0657564 0.734177 0.182803C0.612999 0.299851 0.544922 0.4586 0.544922 0.62413V8.49157C0.544795 8.65554 0.578114 8.81792 0.642976 8.96946C0.707839 9.12098 0.802973 9.25868 0.922946 9.37469L9.19113 17.3525C9.24634 17.4046 9.2842 17.4713 9.29985 17.5442C9.31548 17.6172 9.30819 17.693 9.27888 17.7619C9.24959 17.8308 9.19963 17.8897 9.13543 17.931C9.07123 17.9723 8.99572 17.9941 8.91859 17.9936H1.19987C1.11428 17.9926 1.02931 18.0078 0.949897 18.0386C0.870483 18.0696 0.798211 18.1153 0.737275 18.1734C0.67634 18.2315 0.627956 18.3006 0.594935 18.3769C0.561914 18.4532 0.544914 18.5351 0.544922 18.6178V26.3706C0.54492 26.4529 0.561778 26.5344 0.594525 26.6104C0.627272 26.6864 0.675261 26.7554 0.735729 26.8134C0.796196 26.8714 0.867947 26.9173 0.946851 26.9484C1.02575 26.9795 1.11025 26.9952 1.19548 26.9947H9.22189C9.39327 26.9947 9.55762 26.929 9.67879 26.8118C9.79997 26.6948 9.86805 26.5361 9.86805 26.3706V18.6263C9.86805 18.544 9.88491 18.4625 9.91765 18.3864C9.9504 18.3104 9.99839 18.2414 10.0589 18.1834C10.1193 18.1254 10.1911 18.0796 10.27 18.0484C10.3489 18.0173 10.4334 18.0016 10.5186 18.0022H18.5318C18.7032 18.0022 18.8676 18.0679 18.9887 18.1849C19.1099 18.3019 19.178 18.4607 19.178 18.6263V26.481C19.1779 26.6449 19.2112 26.8073 19.2761 26.9588C19.3409 27.1104 19.436 27.248 19.556 27.3641L28.1186 35.6306C28.238 35.7479 28.3804 35.8409 28.5373 35.9044C28.6943 35.9677 28.8628 36.0002 29.033 36H37.1693C37.2545 36 37.339 35.9837 37.4176 35.9521C37.4963 35.9204 37.5677 35.8741 37.6278 35.8157C37.6878 35.7572 37.7353 35.688 37.7675 35.6118C37.7998 35.5356 37.8161 35.4539 37.8155 35.3717V27.517C37.814 27.1848 37.6783 26.8664 37.4375 26.6296L29.1648 18.6432C29.1096 18.5912 29.0718 18.5244 29.0562 18.4514C29.0405 18.3786 29.0478 18.3028 29.0771 18.2339C29.1064 18.1649 29.1564 18.1061 29.2206 18.0648C29.2848 18.0234 29.3603 18.0017 29.4374 18.0022H37.1693C37.3406 18.0022 37.505 17.9364 37.6262 17.8193C37.7473 17.7023 37.8155 17.5435 37.8155 17.378V9.62519C37.8155 9.45966 37.7473 9.30091 37.6262 9.18386C37.505 9.06682 37.3406 9.00106 37.1693 9.00106Z" fill="#D24242"/>
<path d="M188.452 11.0511V9.21695H187.701V8.87305H189.626V9.21695H188.875V11.0681L188.452 11.0511Z" fill="#514E4E"/>
<path d="M190.006 11.0681V8.87305H190.353L191.346 10.4737H191.166L192.142 8.87305H192.489V11.0681H192.084V9.47595H192.168L191.341 10.8176H191.148L190.305 9.47595H190.401V11.0681H190.006Z" fill="#514E4E"/>
<path d="M116.831 9.9964C114.99 9.22072 112.997 8.83838 110.989 8.87552H99.4941V26.8309H111.006C113.009 26.8657 114.995 26.4834 116.831 25.7101C118.435 25.0422 119.808 23.9445 120.787 22.547C121.734 21.1495 122.222 19.5084 122.189 17.8383C122.223 16.1721 121.735 14.5348 120.787 13.1425C119.803 11.7532 118.431 10.6623 116.831 9.9964ZM116.075 20.6364C115.518 21.4417 114.73 22.072 113.806 22.4493C112.735 22.8862 111.58 23.1004 110.417 23.0776H104.826V12.6331H110.435C111.597 12.6117 112.751 12.8228 113.824 13.2529C114.751 13.6246 115.541 14.2562 116.092 15.0658C116.638 15.896 116.918 16.8636 116.896 17.8468C116.92 18.833 116.64 19.8038 116.092 20.6364H116.075Z" fill="#514E4E"/>
<path d="M142.526 20.3548C143.616 19.9101 144.552 19.1736 145.224 18.2319C145.883 17.2888 146.224 16.1722 146.2 15.0349C146.224 13.8806 145.874 12.7482 145.198 11.7953C144.519 10.8405 143.574 10.09 142.473 9.62995C141.25 9.11125 139.926 8.85347 138.592 8.87421H124.803V26.8424H130.148L130.174 21.0979H134.223L139.884 26.8424H146.556L140.223 20.9875C141.017 20.88 141.792 20.6671 142.526 20.3548ZM139.01 17.4464C138.401 17.7087 137.741 17.8378 137.075 17.8243H130.174L130.148 12.1604H137.062C137.724 12.1472 138.383 12.2672 138.996 12.5128C139.522 12.7201 139.978 13.064 140.315 13.5063C140.634 13.9348 140.802 14.4516 140.794 14.9797C140.805 15.5041 140.637 16.0174 140.315 16.4402C139.971 16.8788 139.517 17.2252 138.996 17.4464H139.01Z" fill="#514E4E"/>
<path d="M64.5687 20.914L53.7159 8.87305H52.6697H47.3379V26.8285H52.6697V14.7577L63.6017 26.8285H64.5687H69.9007V8.87305H64.5687V20.914Z" fill="#514E4E"/>
<path d="M161.392 8.87305H156.834L147.814 26.8285H153.423L154.838 23.6398H165.151L166.566 26.8285H172.17L163.164 8.87305H161.392ZM156.258 20.4343L159.994 12.0235L163.726 20.4343H156.258Z" fill="#514E4E"/>
<path d="M179.224 22.8162V8.87305H173.893V22.8162V26.8285H179.224H192.543V22.8162H179.224Z" fill="#514E4E"/>
<path d="M84.6282 8.13477C78.3336 8.13477 71.8809 10.9455 71.8809 17.5858C71.8809 24.2263 78.3336 27.037 84.6282 27.037C90.9227 27.037 97.3756 24.2221 97.3756 17.5858C97.3756 10.9497 90.9184 8.13477 84.6282 8.13477ZM84.6282 23.1522C81.3975 23.1522 77.2787 21.6915 77.2787 17.5858C77.2787 13.4802 81.3975 12.0196 84.6282 12.0196C87.859 12.0196 91.9733 13.4802 91.9733 17.5858C91.9733 21.6915 87.8545 23.1522 84.6282 23.1522Z" fill="#514E4E"/>
</g>
<defs>
<clipPath id="clip0_252_567">
<rect width="192" height="36" fill="white" transform="translate(0.544922)"/>
</clipPath>
</defs>
</svg>
